# xmcd
#
# Track frame offsets:
#	180
#	10308
#	24139
#	35442
#	48954
#	61219
#	72042
#	82191
#	96027
#	107667
#	120150
#	130826
#	140772
#	151382
#	163719
#	174867
#	186368
#	194979
#	205727
#	218447
#	228506
#	239730
#	252623
#	262887
#	273518
#	287355
#
# Disc length: 3981
#
# Revision: 1
# Processed by: cddbd v1.5.1PL0 Copyright (c) Steve Scherf et al.
# Submitted via: EasyCDDAExtractor 4.5.2.1
# Normalized: r0:TDELIM( - )
#
DISCID=6f0f8b1a
DTITLE=Various Artist - Remembering Rhythm Records, West Coast
DYEAR=1900
DGENRE=Oldies
TTITLE0=Mondellos (Alice Jean and the) - 100 Years From Today
TTITLE1=Mondellos (Alice Jean and the) - Come Back Home
TTITLE2=Lyrics - Every Night
TTITLE3=Mondellos (Ollie McClay and the) - Over The Rainbow
TTITLE4=Mondellos (Ollie McClay and the) - Never Leave Me Alone
TTITLE5=Mondellos (Alice Jean and the) - Daylight Savings Time
TTITLE6=Mondellos (Alice Jean and the) - That's What I Call Love
TTITLE7=Little Willie Littlefield - Ruby Ruby
TTITLE8=Mondellos (Alice Jean and the) - Happiness Street
TTITLE9=Mondellos (Alice Jean and the) - Hard To Please
TTITLE10=Bob Jefferies - Never Let Me Go
TTITLE11=Tempos - Promise Me
TTITLE12=Tempos - Never Let Me Go
TTITLE13=Marcels (Bob Jefferies and the) - Take Me Back
TTITLE14=Marcels - Betty Lou
TTITLE15=Paliya DeSantos - (If I Had A) Wishing Well
TTITLE16=Spinners - Marvella
TTITLE17=Spinners - My Love And Your Love
TTITLE18=Rudy Lambert - A Sunday Kind Of Love
TTITLE19=Mondellos - My Heart(Rare audition copy)
TTITLE20=Mondellos (Rudy Lambert and the) - That's What I Call Love
TTITLE21=Mondellos - You'll Never Know(unr)
TTITLE22=Tempos - To Love Again(unr)
TTITLE23=Mondellos (Alice Jean and the) - 100 Years From Today(alt)
TTITLE24=Mondellos (Alice Jean and the) - Come Back Home(alt)
TTITLE25=Lyrics - Every Night(alt)
EXTD=
EXTT0=
EXTT1=
EXTT2=
EXTT3=
EXTT4=
EXTT5=
EXTT6=
EXTT7=
EXTT8=
EXTT9=
EXTT10=
EXTT11=
EXTT12=
EXTT13=
EXTT14=
EXTT15=
EXTT16=
EXTT17=
EXTT18=
EXTT19=
EXTT20=
EXTT21=
EXTT22=
EXTT23=
EXTT24=
EXTT25=
PLAYORDER=
